<svg width="17" height="21" viewBox="0 0 17 21" fill="none" xmlns="http://www.w3.org/2000/svg">
<path id="Vector" d="M15.9141 5.5H12.9141V4.5C12.9141 3.43913 12.4926 2.42172 11.7425 1.67157C10.9923 0.921427 9.97493 0.5 8.91406 0.5C7.8532 0.5 6.83578 0.921427 6.08564 1.67157C5.33549 2.42172 4.91406 3.43913 4.91406 4.5V5.5H1.91406C1.64885 5.5 1.39449 5.60536 1.20696 5.79289C1.01942 5.98043 0.914063 6.23478 0.914062 6.5V17.5C0.914062 18.2956 1.23013 19.0587 1.79274 19.6213C2.35535 20.1839 3.11841 20.5 3.91406 20.5H13.9141C14.7097 20.5 15.4728 20.1839 16.0354 19.6213C16.598 19.0587 16.9141 18.2956 16.9141 17.5V6.5C16.9141 6.23478 16.8087 5.98043 16.6212 5.79289C16.4336 5.60536 16.1793 5.5 15.9141 5.5ZM6.91406 4.5C6.91406 3.96957 7.12478 3.46086 7.49985 3.08579C7.87492 2.71071 8.38363 2.5 8.91406 2.5C9.4445 2.5 9.9532 2.71071 10.3283 3.08579C10.7033 3.46086 10.9141 3.96957 10.9141 4.5V5.5H6.91406V4.5ZM14.9141 17.5C14.9141 17.7652 14.8087 18.0196 14.6212 18.2071C14.4336 18.3946 14.1793 18.5 13.9141 18.5H3.91406C3.64885 18.5 3.39449 18.3946 3.20696 18.2071C3.01942 18.0196 2.91406 17.7652 2.91406 17.5V7.5H4.91406V8.5C4.91406 8.76522 5.01942 9.01957 5.20696 9.20711C5.39449 9.39464 5.64885 9.5 5.91406 9.5C6.17928 9.5 6.43363 9.39464 6.62117 9.20711C6.80871 9.01957 6.91406 8.76522 6.91406 8.5V7.5H10.9141V8.5C10.9141 8.76522 11.0194 9.01957 11.207 9.20711C11.3945 9.39464 11.6488 9.5 11.9141 9.5C12.1793 9.5 12.4336 9.39464 12.6212 9.20711C12.8087 9.01957 12.9141 8.76522 12.9141 8.5V7.5H14.9141V17.5Z" fill="white"/>
</svg>
