<svg width="19" height="23" viewBox="0 0 19 23" fill="none" xmlns="http://www.w3.org/2000/svg">
<path id="Vector" d="M13.407 5.62508C12.8323 5.62508 12.298 5.71308 11.804 5.88908C11.31 6.06508 10.86 6.23941 10.454 6.41208C10.048 6.58475 9.69567 6.67075 9.397 6.67008C9.08367 6.67008 8.73533 6.58775 8.352 6.42308C7.94491 6.24905 7.53309 6.08632 7.117 5.93508C6.66545 5.77264 6.18888 5.69073 5.709 5.69308C4.767 5.69308 3.85967 5.94975 2.987 6.46308C2.11367 6.97508 1.39733 7.73308 0.838 8.73708C0.279333 9.74041 0 10.9774 0 12.4481C0 13.3674 0.107 14.2864 0.321 15.2051C0.535667 16.1251 0.823 16.9944 1.183 17.8131C1.543 18.6331 1.94133 19.3571 2.378 19.9851C2.94467 20.7731 3.498 21.4507 4.038 22.0181C4.578 22.5847 5.204 22.8681 5.916 22.8681C6.38267 22.8681 6.78867 22.7914 7.134 22.6381C7.47867 22.4847 7.84433 22.3297 8.231 22.1731C8.61767 22.0164 9.10233 21.9381 9.685 21.9381C10.129 21.9381 10.5003 21.9837 10.799 22.0751C11.0977 22.1677 11.3713 22.2731 11.62 22.3911C11.87 22.5104 12.1323 22.6157 12.407 22.7071C12.683 22.7991 13.0163 22.8451 13.407 22.8451C13.9203 22.8451 14.3817 22.7091 14.791 22.4371C15.2017 22.1657 15.581 21.8157 15.929 21.3871C16.277 20.9571 16.616 20.5087 16.946 20.0421C17.306 19.5134 17.5987 19.0061 17.824 18.5201C18.0879 17.9679 18.3124 17.3979 18.496 16.8141C18.4733 16.8061 18.3067 16.7197 17.996 16.5551C17.6853 16.3904 17.3333 16.1281 16.94 15.7681C16.5447 15.4081 16.2 14.9371 15.906 14.3551C15.6107 13.7731 15.463 13.0607 15.463 12.2181C15.463 11.4827 15.5797 10.8491 15.813 10.3171C16.047 9.78375 16.321 9.34341 16.635 8.99608C16.949 8.64741 17.2307 8.38108 17.48 8.19708C17.7287 8.01308 17.872 7.90975 17.91 7.88708C17.5273 7.33575 17.11 6.90675 16.658 6.60008C16.2483 6.31532 15.7997 6.09102 15.326 5.93408C14.9466 5.80911 14.5557 5.72235 14.159 5.67508C13.9093 5.64627 13.6583 5.63026 13.407 5.62508ZM12.603 3.76208C12.9557 3.34141 13.2427 2.85341 13.464 2.29808C13.6839 1.752 13.797 1.16878 13.797 0.58008C13.797 0.411413 13.7857 0.26208 13.763 0.13208C13.189 0.154747 12.5897 0.32708 11.965 0.64908C11.3755 0.945217 10.8504 1.35509 10.42 1.85508C10.062 2.26877 9.7678 2.73355 9.547 3.23408C9.29698 3.76595 9.16724 4.34638 9.167 4.93408C9.1653 5.07344 9.18075 5.21249 9.213 5.34808C9.313 5.37075 9.41633 5.38208 9.523 5.38208C10.037 5.38208 10.583 5.22875 11.161 4.92208C11.7138 4.6348 12.204 4.24049 12.603 3.76208Z" fill="white"/>
</svg>
