<svg width="18" height="19" viewBox="0 0 18 19" fill="none" xmlns="http://www.w3.org/2000/svg">
<path id="Vector" fill-rule="evenodd" clip-rule="evenodd" d="M11.4595 12.815C10.1117 13.8919 8.40267 14.4118 6.68344 14.268C4.96421 14.1242 3.3653 13.3276 2.2151 12.0417C1.0649 10.7558 0.450722 9.07833 0.498708 7.35376C0.546694 5.62919 1.2532 3.98846 2.47313 2.76854C3.69305 1.54861 5.33378 0.842104 7.05835 0.794118C8.78292 0.746132 10.4604 1.36031 11.7463 2.51051C13.0321 3.66071 13.8288 5.25962 13.9726 6.97885C14.1164 8.69808 13.5965 10.4071 12.5195 11.755L17.6756 16.91C17.7492 16.9786 17.8083 17.0614 17.8493 17.1534C17.8903 17.2454 17.9124 17.3447 17.9141 17.4454C17.9159 17.5461 17.8974 17.6462 17.8597 17.7396C17.822 17.8329 17.7658 17.9178 17.6946 17.989C17.6234 18.0602 17.5385 18.1164 17.4451 18.1541C17.3518 18.1918 17.2517 18.2103 17.151 18.2086C17.0503 18.2068 16.951 18.1847 16.859 18.1437C16.767 18.1027 16.6842 18.0436 16.6156 17.97L11.4595 12.815ZM3.53355 11.253C2.79959 10.5189 2.2997 9.58379 2.09706 8.56573C1.89442 7.54768 1.99812 6.4924 2.39506 5.53326C2.792 4.57412 3.46436 3.75418 4.32716 3.17706C5.18997 2.59994 6.20449 2.29154 7.24252 2.29084C8.28055 2.29015 9.29549 2.59718 10.1591 3.17314C11.0226 3.7491 11.6961 4.56813 12.0943 5.52673C12.4926 6.48533 12.5977 7.54047 12.3964 8.5588C12.1951 9.57713 11.6965 10.5129 10.9635 11.248L10.9585 11.253L10.9535 11.257C9.96864 12.2396 8.63398 12.7911 7.24272 12.7903C5.85147 12.7896 4.5174 12.2366 3.53355 11.253Z" fill="white"/>
</svg>
